<svg version="1.1" xmlns="http://www.w3.org/2000/svg" viewBox="0 0 778.6043870713975 976.7777777777777" width="778.6043870713975" height="976.7777777777777">
  <!-- svg-source:excalidraw -->
  
  <defs>
    <style class="style-fonts">
      @font-face {
        font-family: "Virgil";
        src: url("https://excalidraw.com/Virgil.woff2");
      }
      @font-face {
        font-family: "Cascadia";
        src: url("https://excalidraw.com/Cascadia.woff2");
      }
    </style>
    
  </defs>
  <rect x="0" y="0" width="778.6043870713975" height="976.7777777777777" fill="#ffffff"></rect><g stroke-linecap="round" transform="translate(203.4377204047309 601.0555555555554) rotate(0 103.5 40.5)"><path d="M5.39 4.69 C5.39 4.69, 5.39 4.69, 5.39 4.69 M5.39 4.69 C5.39 4.69, 5.39 4.69, 5.39 4.69 M1.19 15.61 C3.71 11.29, 7.27 8.7, 13 2.03 M1.19 15.61 C4.2 10.8, 9.08 6.01, 13 2.03 M0.93 22.01 C7.81 14.91, 14.42 5.32, 18.64 1.63 M0.93 22.01 C7.35 14.28, 15.07 6.13, 18.64 1.63 M0.67 28.41 C7.16 23.44, 11.8 13.51, 22.98 2.75 M0.67 28.41 C9.05 19.66, 16.56 11.33, 22.98 2.75 M1.06 34.05 C12.8 23.75, 22.26 10.03, 28.62 2.35 M1.06 34.05 C6.28 27.89, 12.69 20.05, 28.62 2.35 M0.8 40.45 C11.41 26.87, 21.9 13.16, 33.61 2.71 M0.8 40.45 C13.42 26.52, 26.03 11.28, 33.61 2.71 M0.54 46.85 C10.08 38.21, 16.33 24.84, 39.25 2.32 M0.54 46.85 C14.72 32.06, 26.48 15.63, 39.25 2.32 M0.94 52.49 C9.98 44.05, 17.86 30.24, 44.24 2.68 M0.94 52.49 C15.66 33.83, 33.31 14.87, 44.24 2.68 M0.67 58.89 C13.85 43.78, 27.18 30.02, 49.88 2.28 M0.67 58.89 C17.24 39.82, 34.7 21.79, 49.88 2.28 M1.07 64.53 C14.95 50.44, 28.31 34.48, 54.87 2.64 M1.07 64.53 C19.9 44.82, 37.54 23.73, 54.87 2.64 M3.43 67.91 C16.28 50.74, 29.05 36.33, 60.51 2.25 M3.43 67.91 C17.73 52.31, 31.38 35.23, 60.51 2.25 M5.14 72.04 C17.58 56.51, 31.64 39.84, 65.5 2.61 M5.14 72.04 C23.37 52.04, 40.21 34.01, 65.5 2.61 M6.19 76.93 C20.41 59.78, 37.65 44.06, 71.14 2.21 M6.19 76.93 C22.86 56.23, 39.28 36.17, 71.14 2.21 M9.86 78.8 C27.54 60.92, 42.61 43.85, 76.13 2.57 M9.86 78.8 C32.91 54.18, 54.34 28.22, 76.13 2.57 M12.88 81.42 C32.28 58.5, 49.59 34.89, 81.77 2.18 M12.88 81.42 C38.86 52.16, 64.37 23.2, 81.77 2.18 M17.87 81.78 C45.04 52.31, 68.37 24.5, 86.76 2.54 M17.87 81.78 C44.13 53.12, 68.16 22.33, 86.76 2.54 M22.2 82.9 C49.07 50.31, 78.36 20.87, 91.74 2.9 M22.2 82.9 C38.55 63.53, 56.16 41.69, 91.74 2.9 M27.84 82.5 C46.08 60.8, 61.41 40.22, 97.39 2.51 M27.84 82.5 C42.48 64.43, 57.24 47.14, 97.39 2.51 M32.83 82.86 C55.43 55.97, 80.08 30.77, 102.37 2.87 M32.83 82.86 C56.27 54.32, 81.8 25.6, 102.37 2.87 M38.47 82.47 C54.37 62.6, 74.19 39.5, 108.02 2.47 M38.47 82.47 C56.28 63.59, 72.13 45.52, 108.02 2.47 M43.46 82.83 C72.05 51.68, 97.34 20.62, 113 2.83 M43.46 82.83 C62.53 61.17, 80.8 38.33, 113 2.83 M49.1 82.44 C73.34 55.74, 96.21 27.86, 118.65 2.44 M49.1 82.44 C72.53 55.03, 96.24 27.9, 118.65 2.44 M54.09 82.8 C68.92 65.87, 89.04 42.43, 123.63 2.8 M54.09 82.8 C76.93 55.63, 101.26 28.98, 123.63 2.8 M59.08 83.16 C86.69 51.93, 110.22 24.04, 129.28 2.4 M59.08 83.16 C85.42 51.46, 112.26 21.49, 129.28 2.4 M64.72 82.76 C87.95 59.13, 106.6 31.82, 134.26 2.76 M64.72 82.76 C79.35 66.36, 95.94 48.25, 134.26 2.76 M69.71 83.12 C84.32 64.53, 101.27 48.89, 139.91 2.37 M69.71 83.12 C93.48 54.76, 118.45 26.07, 139.91 2.37 M75.35 82.73 C103.98 53.74, 129.64 21.65, 144.89 2.73 M75.35 82.73 C97.71 56.99, 121.34 30.29, 144.89 2.73 M80.34 83.09 C100.49 58.64, 122.53 37.25, 150.54 2.33 M80.34 83.09 C95.16 67.59, 109.78 49.85, 150.54 2.33 M85.98 82.69 C114.87 52.15, 139.6 20.4, 155.52 2.69 M85.98 82.69 C103.5 64.82, 119.96 45.46, 155.52 2.69 M90.97 83.05 C114.39 53.1, 138.71 25.94, 161.17 2.3 M90.97 83.05 C106.19 64.98, 120.39 47.96, 161.17 2.3 M96.61 82.66 C111.56 63.9, 128.01 47.18, 166.15 2.66 M96.61 82.66 C113.03 61.95, 130.9 41.39, 166.15 2.66 M101.6 83.02 C123.54 56.13, 147.8 32.55, 171.8 2.26 M101.6 83.02 C116.18 66.06, 130.29 50.43, 171.8 2.26 M107.24 82.62 C131.78 54.51, 151.85 28.56, 176.78 2.62 M107.24 82.62 C121.62 65.76, 138.49 47.5, 176.78 2.62 M112.23 82.98 C128.51 61.61, 149.81 39.69, 182.43 2.23 M112.23 82.98 C136.37 53.2, 161.27 24.8, 182.43 2.23 M117.87 82.59 C138.34 56.11, 162.93 28.74, 188.73 1.08 M117.87 82.59 C142.02 55.88, 166.87 27.45, 188.73 1.08 M122.86 82.95 C138.97 64.73, 154.79 46.86, 193.06 2.2 M122.86 82.95 C149.94 53.46, 176.98 22.13, 193.06 2.2 M128.5 82.55 C154.17 52.59, 177.94 25.39, 197.39 3.31 M128.5 82.55 C151.16 56.53, 174.63 30.27, 197.39 3.31 M133.49 82.91 C159.38 51.54, 185.5 20.92, 201.06 5.18 M133.49 82.91 C156.36 57.59, 178.66 30.42, 201.06 5.18 M139.13 82.52 C159.26 57.94, 183.59 31.58, 204.08 7.8 M139.13 82.52 C157.63 61.22, 178.04 38.35, 204.08 7.8 M144.12 82.88 C164.02 61.3, 183.24 35.83, 207.1 10.43 M144.12 82.88 C157.81 67.26, 172.16 50.98, 207.1 10.43 M149.76 82.49 C171.32 58.2, 190.1 33.18, 207.5 16.07 M149.76 82.49 C165.27 65.09, 180.14 46.9, 207.5 16.07 M154.75 82.85 C169.65 64.79, 182.66 50.47, 207.23 22.47 M154.75 82.85 C175.48 57.74, 196.67 33.67, 207.23 22.47 M160.39 82.45 C172.06 68.99, 182.34 56.97, 207.63 28.11 M160.39 82.45 C178.95 60.27, 197.8 40.23, 207.63 28.11 M165.38 82.81 C179.03 63.41, 195.71 49.58, 207.37 34.51 M165.38 82.81 C179.77 67.01, 194.71 50.08, 207.37 34.51 M171.02 82.42 C186.17 67.92, 196.72 50.91, 207.76 40.15 M171.02 82.42 C185.2 66.13, 198.46 50.52, 207.76 40.15 M176.01 82.78 C187.26 68.15, 198.22 57.83, 207.5 46.55 M176.01 82.78 C184.72 71.05, 195.35 60.51, 207.5 46.55 M181 83.14 C189.02 75.5, 197.06 67.01, 207.89 52.19 M181 83.14 C189.39 74.36, 196.62 64.96, 207.89 52.19 M187.3 81.99 C193.69 75.76, 197.21 69.06, 207.63 58.59 M187.3 81.99 C191.23 76.27, 197.06 71.37, 207.63 58.59 M194.25 80.08 C200.29 74.01, 201.66 68.3, 209.34 62.73 M194.25 80.08 C199.66 75.03, 204.5 68.34, 209.34 62.73" stroke="#a5d8ff" stroke-width="0.5" fill="none"></path><path d="M20.25 0 M20.25 0 C82.52 0.78, 145.55 0.97, 186.75 0 M20.25 0 C69.63 1.11, 116.26 1.11, 186.75 0 M186.75 0 C198.92 -1.74, 207.76 5.44, 207 20.25 M186.75 0 C199.48 1.92, 206.79 5.91, 207 20.25 M207 20.25 C206.03 32.98, 207.87 43.06, 207 60.75 M207 20.25 C206.84 33.49, 206.9 48.71, 207 60.75 M207 60.75 C207.96 73.11, 198.71 81.21, 186.75 81 M207 60.75 C208.75 72.39, 201.07 82.9, 186.75 81 M186.75 81 C151.7 78.38, 115.44 80.17, 20.25 81 M186.75 81 C123.52 82.4, 59.13 81.65, 20.25 81 M20.25 81 C8.58 79.78, 1.96 72.36, 0 60.75 M20.25 81 C6.87 81.31, -0.29 76.55, 0 60.75 M0 60.75 C-0.86 51.17, -0.79 38.04, 0 20.25 M0 60.75 C0.21 46.8, 0.02 35.06, 0 20.25 M0 20.25 C1.51 7.44, 5.71 1.98, 20.25 0 M0 20.25 C-0.56 5.11, 5.95 -0.03, 20.25 0" stroke="#1e1e1e" stroke-width="1" fill="none"></path></g><g transform="translate(268.9677573310004 629.0555555555554) rotate(0 37.96996307373047 12.5)"><text x="37.96996307373047" y="0" font-family="Virgil, Segoe UI Emoji" font-size="20px" fill="#1e1e1e" text-anchor="middle" style="white-space: pre;" direction="ltr" dominant-baseline="text-before-edge">Eventon</text></g><g stroke-linecap="round" transform="translate(224.93772040473084 273.347619047619) rotate(0 80.49999999999997 79.5)"><path d="M18.81 28.28 C18.81 28.28, 18.81 28.28, 18.81 28.28 M18.81 28.28 C18.81 28.28, 18.81 28.28, 18.81 28.28 M10.42 46.95 C15.51 40.28, 18.12 33.36, 35.05 16.74 M8.39 46.14 C15.05 38.57, 22.64 30.82, 33.8 16.32 M2.9 58.39 C13.79 47.95, 23.62 36.2, 44.94 9.82 M3.02 57.84 C15.75 43.44, 27.4 30.33, 45.73 9.18 M3.85 65.69 C17.48 46.55, 36.45 30.1, 51.87 7.01 M3.81 65.39 C14.95 52.34, 26.14 39.48, 52.43 7.3 M4.55 71.36 C21.35 49.22, 39.43 28.74, 61.5 5.63 M1.93 70.69 C18.65 54.14, 32.66 34.69, 61.37 4.13 M1.09 76.22 C21.19 55.47, 38.08 37.39, 66.6 4.87 M2.3 78.17 C18.34 59.4, 35.12 40.57, 68 3.33 M1.84 84.63 C21.62 63.27, 39.52 42.57, 72.95 2.5 M2 83.13 C19.79 65.1, 34.85 45.05, 74.5 0.59 M0.25 91.8 C23.92 66.76, 44.31 42.47, 80.17 2.6 M1.92 90.16 C16.37 71.56, 31.83 53.36, 79.5 0.48 M5.54 92.73 C27.57 68.2, 51.71 39.71, 85.74 3.06 M4.31 95.23 C25.63 68.98, 46.04 43.01, 84.98 1.14 M5.52 100.26 C33.32 64.17, 60.77 31.54, 89.78 2.86 M4.52 98.87 C33.05 66.08, 62.17 31.79, 87.88 2.55 M4.66 102.32 C37.38 69.29, 67.78 33.28, 93.78 3.53 M5.87 104.52 C35.06 69.86, 64.58 36.98, 93.8 3.26 M9.42 108.37 C28.43 83.58, 46.52 64.83, 96.08 5.93 M7.95 108.1 C44.04 66.24, 80.75 24.62, 97.24 4.21 M9.11 113.2 C30.4 88.32, 51.85 64.21, 100.55 4.99 M10.27 110.96 C28.16 90.01, 46.83 69.32, 103.23 4.63 M11.24 117.2 C35.21 91.8, 55.83 65.33, 106.69 7.97 M10.56 115.25 C42.23 80.82, 74.69 44.82, 106.31 7.38 M12.99 119.05 C48.64 81.1, 83.07 42.03, 111.73 8.17 M13.01 121.73 C43.33 85.98, 74.74 48.46, 111.43 7.86 M13.86 122.5 C34.54 99.27, 56.16 76.27, 115.41 8.77 M15.92 123.71 C47.71 85.67, 81.1 47.88, 113.7 8.89 M19.9 125.39 C39.56 100.84, 63.25 74.1, 117.29 12.21 M18.72 127.14 C52.15 85.56, 87.73 44.62, 118.5 11.28 M21.66 128.36 C43.36 101.59, 65.65 76.01, 120.27 14.01 M20.83 128.52 C48.63 100.28, 73.74 69.44, 121.93 14.77 M24.38 133.64 C64.35 86.04, 106.26 38.82, 125.95 14.54 M22.71 132.73 C48.75 105.42, 72.03 76.94, 125.02 16.87 M25.96 134.27 C50.29 110.64, 72.89 82.41, 126.11 20.23 M26.7 135.44 C48.8 109.91, 70.82 84.33, 128.06 19.23 M29.15 138.6 C56.76 105.76, 86.17 74.88, 132.71 20.79 M30.12 138.71 C61.38 97.75, 96.01 59.46, 131.52 20.05 M32.25 143.33 C69.71 95.97, 109.66 49.74, 133.39 22.57 M30.79 141.15 C66.61 101.53, 101.26 62.34, 134.39 22.43 M35.82 142.44 C69.88 103.99, 104.05 64.18, 137.44 25.68 M34.69 143.99 C60.03 114.87, 85.54 86.08, 139.08 24.71 M39.54 147.02 C71.11 109.5, 106.9 67.02, 143.38 29.34 M37.6 146.01 C77.25 99.6, 116.11 52.99, 141.78 26.94 M42.16 148.69 C67.39 114.52, 98.26 83.25, 143.57 30.57 M42.01 148.15 C64.64 120.92, 88.93 94.27, 144.03 30.66 M43.73 149.93 C83.09 106.93, 121.21 62.49, 144.32 36.22 M44.16 150.84 C64.9 126.5, 84.92 101.6, 145.69 34.06 M48.86 152.27 C79.27 118.61, 105.59 84.78, 149.36 35.69 M50.25 151.46 C88.68 108.27, 124.6 65.53, 149.24 37.88 M52.28 155.3 C82.93 121.74, 108.38 91.72, 149.21 39.47 M52.79 154.38 C79.24 124.04, 102.59 94.93, 150.08 40.99 M55.48 155.47 C78.65 131.9, 95.45 111.53, 153.3 47.13 M56.18 154.9 C78.53 130.44, 101.03 103.55, 153.47 45.56 M61.52 155.49 C85.51 127.86, 107.03 102.64, 153.33 47.54 M60.35 155.81 C83.49 128.13, 107.29 101.88, 154.84 48.39 M65.78 157.96 C93.93 126.88, 124.08 92.99, 155.42 51.38 M64.42 158.11 C100.23 118.11, 136.26 76.03, 156.73 52.57 M68.67 159.98 C101.88 124.19, 131.85 86.73, 156.82 57.95 M68.27 160.77 C99.68 124.07, 129.93 88.13, 158.43 57.35 M75.71 161.27 C106.35 124.7, 135.42 88.5, 157.99 63.05 M73.49 159.93 C95.36 134.44, 116.86 108.82, 158.92 63.23 M81.05 161.34 C104.65 129.12, 131.05 99.79, 157.37 68.62 M79.78 159.27 C105.93 128.79, 133.04 96.74, 158.53 68.64 M86.11 160.06 C112.4 129.3, 139.49 97.27, 159.44 74.11 M84.47 159.63 C108.92 131.26, 133.66 102.97, 159.83 72.52 M89.69 159.84 C115.08 132.77, 134.69 105.36, 159.49 76.34 M89.5 160.35 C109.02 136.18, 129.39 113.96, 161.35 77.22 M95.4 157.9 C120.67 132.02, 139.79 107.73, 162.41 82.41 M95.72 158.69 C115.12 136.83, 133.3 115.32, 161.13 82.62 M101.05 157.3 C127.61 127.93, 151.84 102.56, 161.96 86.02 M103.17 157.92 C116.84 141.99, 131.33 123.65, 163.03 87.49 M110.76 154.41 C123.46 140.15, 134.12 127.71, 159.14 98.7 M112.04 153.97 C127.5 135.98, 143.78 118.35, 159.78 97.92 M121.74 148.93 C131.14 138.63, 136.64 130.34, 156.55 108.76 M120.37 148.56 C134.23 133.17, 148.7 119.17, 156.4 107.35" stroke="#ffec99" stroke-width="0.5" fill="none"></path><path d="M110.08 5.59 C120 8.41, 130.8 17.08, 138.48 24.79 C146.16 32.5, 152.29 41.68, 156.17 51.84 C160.04 62.01, 162.48 75.08, 161.75 85.77 C161.02 96.47, 157.07 106.6, 151.81 116.02 C146.55 125.43, 138.68 135.55, 130.17 142.27 C121.66 148.99, 111.43 153.76, 100.74 156.34 C90.04 158.92, 76.91 159.64, 65.98 157.75 C55.06 155.87, 44.09 151.23, 35.18 145.06 C26.26 138.89, 18.16 129.96, 12.5 120.74 C6.85 111.52, 2.96 100.27, 1.25 89.74 C-0.45 79.22, -0.64 67.82, 2.28 57.59 C5.19 47.36, 11.56 36.53, 18.74 28.37 C25.92 20.2, 35.48 13.45, 45.35 8.59 C55.21 3.73, 66.6 -0.47, 77.92 -0.78 C89.24 -1.1, 107.4 5.21, 113.24 6.71 C119.09 8.21, 113.66 7.11, 113 8.23 M79.84 -0.63 C89.88 -2.01, 102.3 1.42, 112.46 5.88 C122.61 10.34, 133.15 17.73, 140.78 26.14 C148.41 34.55, 155.06 45.97, 158.22 56.34 C161.39 66.72, 161.18 78.04, 159.77 88.41 C158.36 98.78, 155.01 109.3, 149.77 118.55 C144.54 127.8, 136.92 137.63, 128.37 143.91 C119.83 150.18, 109.31 154.16, 98.51 156.21 C87.7 158.25, 74.35 158.28, 63.55 156.18 C52.74 154.08, 42.4 149.8, 33.69 143.63 C24.98 137.46, 16.86 128.35, 11.28 119.14 C5.7 109.92, 1.5 99.22, 0.21 88.34 C-1.08 77.47, -0.01 64.41, 3.55 53.88 C7.1 43.35, 14.3 32.97, 21.56 25.16 C28.82 17.36, 37.45 11.12, 47.11 7.04 C56.77 2.96, 73.72 1.47, 79.51 0.68 C85.3 -0.11, 81.56 1.27, 81.84 2.3" stroke="#1e1e1e" stroke-width="1" fill="none"></path></g><g transform="translate(253.88351392351063 332.63262994328846) rotate(0 51.632110595703125 19.999999999999993)"><text x="51.632110595703125" y="0" font-family="Virgil, Segoe UI Emoji" font-size="16px" fill="#1e1e1e" text-anchor="middle" style="white-space: pre;" direction="ltr" dominant-baseline="text-before-edge">UserCallBack</text><text x="51.632110595703125" y="20" font-family="Virgil, Segoe UI Emoji" font-size="16px" fill="#1e1e1e" text-anchor="middle" style="white-space: pre;" direction="ltr" dominant-baseline="text-before-edge">Contract</text></g><g stroke-linecap="round" transform="translate(235.60438707139764 840.7777777777777) rotate(0 63 63)"><path d="M7.73 31.9 C7.73 31.9, 7.73 31.9, 7.73 31.9 M7.73 31.9 C7.73 31.9, 7.73 31.9, 7.73 31.9 M4.61 39.95 C11.85 33.52, 16.19 28.73, 30 11.38 M6.21 39.59 C11.07 34.98, 15.98 28.4, 30.69 12.23 M0.87 49.96 C12.25 38.38, 24.05 25.16, 38.49 7.23 M1.82 50.74 C14.48 36.1, 27.65 20.75, 37.33 9.08 M-0.24 59.5 C11.92 44.5, 24.34 30.92, 47.65 7.3 M-1.22 59.95 C9.67 48.46, 19.23 36.55, 46.16 5.81 M1.99 63.8 C13.98 48.95, 29.76 32.81, 55.74 0.23 M0.57 63.68 C10.73 51.67, 23.76 37.55, 55.69 -0.5 M3.55 67.71 C14.74 51.41, 31.36 35.8, 61.87 -0.46 M2.46 68.73 C19.24 48.43, 37.24 29.19, 61.63 0.99 M1.75 74.42 C18.25 57.68, 28.19 41.89, 65.64 0 M4.38 74.01 C20.43 54.02, 37.05 33.42, 65.4 2.27 M3.9 76.63 C20.17 59.11, 36.94 40.58, 69.51 1.95 M4.5 78.98 C29.36 48.92, 55.05 18.84, 71.4 2.03 M5.47 82.9 C29.49 53.94, 52.5 27.59, 76.87 1.08 M6.25 82.98 C29.79 54.95, 53.96 26.2, 75.92 2.5 M7.46 88.1 C24.23 66.33, 43.01 47.08, 82.05 1.64 M6.59 88.89 C26.09 66.8, 42.99 48.02, 80.05 3.8 M9.22 92.66 C26.29 68.02, 45.29 48.8, 85.79 5.7 M7.64 93.48 C29.78 68.19, 50.1 44.38, 84.06 4.32 M11.07 95.58 C32.71 72.91, 54.43 45, 88.63 7.15 M10.28 95.56 C34.43 68.52, 55.43 43.22, 89.57 5.87 M12.58 97.21 C35.93 73.97, 57.32 46.27, 91.67 7.47 M13.19 99.84 C37.93 68.25, 62.58 39.66, 91.27 8.54 M17.8 100.69 C32.2 81.17, 45.79 63.22, 93.97 9.68 M17.05 101.55 C43.13 70.81, 69.13 40.25, 95.15 11.8 M18.11 105.99 C48.47 69.51, 76.93 36.68, 97.95 13.37 M18.21 103.59 C36.79 84.34, 53.1 66.64, 98.81 12.65 M22.96 106.9 C49.93 75.37, 77.83 41.36, 100.9 15.48 M22.31 106.62 C47 77.96, 71.96 48.9, 101.81 15.52 M22.56 112.04 C47.6 83.95, 69.25 55.2, 103.61 17 M23.87 109.2 C48.47 83.77, 72.4 55.09, 105.2 18.09 M28.05 113.34 C51.49 83.46, 77.54 55.96, 109.19 20.48 M27.32 113.45 C56.48 80.53, 85.38 46.63, 109.19 19.94 M30.15 114.53 C61.26 82.9, 87.58 47.88, 109.82 23.57 M30.54 114.58 C46.44 94.82, 64.14 77.29, 110.83 23.21 M33.38 117.95 C61.81 86.22, 86.58 57.27, 115.48 25.72 M33.89 116.89 C52.82 95.22, 70.45 74.61, 113.52 24.41 M38.01 117.74 C58.11 93.36, 77.56 69.24, 115.37 27.21 M39.13 118.05 C69.1 85.54, 97.27 50.92, 117.39 28.59 M40.9 119.61 C64.82 94.57, 87.19 68.11, 116.66 34.13 M43.09 120.02 C68.41 89.09, 97.86 55.97, 118.9 33.45 M44.19 123.59 C76.05 86.83, 103.52 52.85, 121.21 37.64 M45.22 122.91 C69.86 95, 93.01 66.73, 120.43 37.72 M49.41 122.29 C77.58 92.92, 103.59 60.82, 121.72 41.98 M50.58 124.34 C66.8 104.48, 83.15 84.66, 123.28 40.27 M54.9 127.39 C81.57 94.91, 108.59 62.82, 124.46 45.96 M54.18 125.11 C78.45 95.79, 103.58 66.2, 123.33 44.77 M56.55 128.86 C81.6 97.37, 108.95 71.02, 125.95 49.7 M56.53 127.52 C78.98 101.17, 101.56 76, 126.57 47.53 M62.53 128.02 C82.45 104.28, 102.69 79.8, 125.19 55.16 M63.29 127.54 C80.95 105.07, 99.18 84.49, 126.16 55.14 M68.12 127.51 C86.71 103.56, 106.29 81.76, 126.88 61.85 M68.96 125.91 C82.53 112.54, 95.74 96.8, 124.6 61.33 M75.04 127.03 C92.56 107.6, 109.56 86.15, 124.31 68.85 M75.08 125.04 C92.64 105.9, 109.48 85.47, 125.47 68.12 M79.58 123.86 C90.11 111.56, 103.02 99.85, 126.76 75.06 M79.24 124.59 C95.44 107.49, 109.07 92.01, 125.64 73.17 M85.33 123.6 C97.96 113.32, 106.73 101.17, 125.56 81.48 M86.68 125.4 C101.22 107.25, 116.45 90.43, 124.33 79.19 M100.46 118.11 C102.26 113.96, 104.79 111.03, 113.71 100.98 M98.47 116.51 C102.08 112.68, 106.03 109.31, 111.49 100.87" stroke="#ffc9c9" stroke-width="0.5" fill="none"></path><path d="M56.51 -0.27 C65.54 -2.26, 77.57 0.49, 86.79 4.34 C96 8.18, 105.4 15.46, 111.8 22.8 C118.2 30.14, 123.02 38.94, 125.18 48.37 C127.35 57.81, 127.56 69.87, 124.79 79.42 C122.02 88.97, 115.43 98.45, 108.55 105.66 C101.68 112.86, 92.58 119.25, 83.55 122.65 C74.52 126.05, 63.81 127.6, 54.37 126.06 C44.94 124.51, 35 119.22, 26.95 113.37 C18.9 107.51, 10.72 99.46, 6.07 90.95 C1.42 82.44, -1.25 72.17, -0.96 62.32 C-0.67 52.46, 3.03 40.54, 7.81 31.81 C12.59 23.07, 18.22 15.16, 27.73 9.91 C37.25 4.66, 57.37 1.56, 64.9 0.32 C72.43 -0.93, 72.88 1.46, 72.91 2.43 M46.37 1.15 C54.9 -2.23, 65.28 0.61, 74.79 2.56 C84.29 4.51, 95.59 6.88, 103.4 12.83 C111.2 18.79, 117.66 29.16, 121.61 38.3 C125.56 47.44, 128.03 58.06, 127.09 67.7 C126.16 77.33, 121.59 88.02, 116.01 96.1 C110.42 104.18, 101.93 110.97, 93.59 116.19 C85.24 121.41, 75.33 126.65, 65.94 127.42 C56.54 128.19, 46.13 125.04, 37.2 120.82 C28.27 116.6, 18.56 110.24, 12.35 102.11 C6.15 93.99, 1.48 82.05, -0.02 72.06 C-1.53 62.08, 0.32 51.37, 3.33 42.18 C6.34 33, 11 23.49, 18.04 16.95 C25.08 10.4, 41.15 5.34, 45.58 2.91 C50.02 0.49, 44.22 1.41, 44.63 2.4" stroke="#1e1e1e" stroke-width="1" fill="none"></path></g><g transform="translate(266.3066980036178 878.7300505630252) rotate(0 32.249961853027344 25)"><text x="32.249961853027344" y="0" font-family="Virgil, Segoe UI Emoji" font-size="20px" fill="#1e1e1e" text-anchor="middle" style="white-space: pre;" direction="ltr" dominant-baseline="text-before-edge">Signal </text><text x="32.249961853027344" y="25" font-family="Virgil, Segoe UI Emoji" font-size="20px" fill="#1e1e1e" text-anchor="middle" style="white-space: pre;" direction="ltr" dominant-baseline="text-before-edge">Source</text></g><g mask="url(#mask-kJBAdgDdnhmQ7rLjcwv6k)" stroke-linecap="round"><g transform="translate(300.6492482048266 830.2308192527995) rotate(0 1.2730174667850633 -69.06008263654064)"><path d="M1.1 -0.64 C1.53 -23.47, 2.07 -115.09, 2.32 -137.99 M0.23 1.63 C0.56 -21.45, 1.31 -116.13, 1.65 -139.76" stroke="#1e1e1e" stroke-width="1" fill="none"></path></g><g transform="translate(300.6492482048266 830.2308192527995) rotate(0 1.2730174667850633 -69.06008263654064)"><path d="M10.54 -110.58 C10.17 -118.03, 7.23 -127.39, 0.15 -140.31 M11.7 -112.06 C9.13 -119.7, 5.42 -127.71, 2.59 -140.37" stroke="#1e1e1e" stroke-width="1" fill="none"></path></g><g transform="translate(300.6492482048266 830.2308192527995) rotate(0 1.2730174667850633 -69.06008263654064)"><path d="M-9.98 -110.8 C-4.56 -118.37, -1.72 -127.68, 0.15 -140.31 M-8.82 -112.28 C-5.44 -119.81, -3.21 -127.75, 2.59 -140.37" stroke="#1e1e1e" stroke-width="1" fill="none"></path></g></g><mask id="mask-kJBAdgDdnhmQ7rLjcwv6k"><rect x="0" y="0" fill="#fff" width="402.44310649608127" height="1068.9060829500434"></rect><rect x="247.38623472350082" y="748.3931874041775" fill="#000" width="108.31988525390625" height="25" opacity="1"></rect></mask><g transform="translate(247.38623472350082 748.3931874041775) rotate(0 54.53603094811086 12.77754921208134)"><text x="54.159942626953125" y="0" font-family="Virgil, Segoe UI Emoji" font-size="20px" fill="#1e1e1e" text-anchor="middle" style="white-space: pre;" direction="ltr" dominant-baseline="text-before-edge">Send Signal</text></g><g mask="url(#mask-dCNYmVX1dExuXqyF_55ur)" stroke-linecap="round"><g transform="translate(308.9443158797241 438.3822383200261) rotate(0 -0.1193203439010233 76.49272169495529)"><path d="M-0.61 -0.53 C-0.75 25.03, -0.48 126.87, -0.59 152.51 M1.27 1.8 C0.95 27.56, -0.91 128.07, -1.51 153.52" stroke="#1e1e1e" stroke-width="1" fill="none"></path></g><g transform="translate(308.9443158797241 438.3822383200261) rotate(0 -0.1193203439010233 76.49272169495529)"><path d="M-12.07 125.2 C-9.94 133.28, -5.49 144.49, -3.24 153.64 M-10.98 125.86 C-8.94 131.77, -6.18 138.6, -1.03 153.55" stroke="#1e1e1e" stroke-width="1" fill="none"></path></g><g transform="translate(308.9443158797241 438.3822383200261) rotate(0 -0.1193203439010233 76.49272169495529)"><path d="M8.44 125.62 C3.97 133.46, 1.81 144.54, -3.24 153.64 M9.53 126.28 C6.7 132.19, 4.59 138.91, -1.03 153.55" stroke="#1e1e1e" stroke-width="1" fill="none"></path></g></g><mask id="mask-dCNYmVX1dExuXqyF_55ur"><rect x="0" y="0" fill="#fff" width="409.57946697092456" height="691.8888888888888"></rect><rect x="231.0368355489676" y="502.6355636044575" fill="#000" width="155.1798095703125" height="25" opacity="1"></rect></mask><g transform="translate(231.0368355489677 502.6355636044575) rotate(0 77.78815998685545 12.23939641052391)"><text x="77.58990478515625" y="0" font-family="Virgil, Segoe UI Emoji" font-size="20px" fill="#1e1e1e" text-anchor="middle" style="white-space: pre;" direction="ltr" dominant-baseline="text-before-edge">Subscribe sigmal</text></g><g stroke-linecap="round" transform="translate(234.93772040473084 10) rotate(0 71.99999999999997 71)"><path d="M11.5 31.2 C11.5 31.2, 11.5 31.2, 11.5 31.2 M11.5 31.2 C11.5 31.2, 11.5 31.2, 11.5 31.2 M7.83 41.46 C15.07 36.77, 19.33 27.86, 34.44 13.46 M6.55 41.59 C15.01 33.67, 21.12 25.35, 33.84 11.28 M3.3 50.48 C12.21 44.93, 18.91 37.97, 39.13 14.28 M3.97 51.99 C14.88 38.89, 28.12 24.22, 38.91 11.85 M2.19 61.84 C18.05 42.24, 31.79 26.96, 45.04 9.68 M1.58 60.65 C12.79 47.37, 23.92 34.03, 46.34 9.21 M2.27 65.58 C11.23 51.67, 25.35 39.62, 54.61 8.61 M1.61 65.89 C21.67 43.99, 40.53 21.66, 53.96 8.36 M2.94 70.6 C20.7 48.37, 40.06 27.51, 58.49 7.05 M1.9 72.13 C15.4 57.42, 28.51 41.71, 59.73 6.66 M4.52 76.32 C24.86 53.44, 43.34 29.31, 68.4 3.84 M2.08 78.63 C20.49 56.81, 40.14 36.96, 67.34 2.76 M2.39 83.01 C16.7 66.25, 33.22 46.67, 73.94 4.38 M2.54 82.95 C17.99 68.14, 32.07 49.97, 72 3.49 M3.73 90.99 C29.08 56.28, 58.81 25.05, 77.16 4.63 M4.11 89.29 C26.8 60.6, 51.81 33.07, 77.84 2.9 M4.28 95.93 C23.6 69.27, 45.26 47.67, 80.78 4.1 M3.65 94.91 C21.87 73.33, 42.21 51.16, 83.03 4.48 M7.05 97.76 C35.7 65.07, 63.36 33.63, 87.6 6.15 M5.62 98.16 C27.77 75.19, 48.22 50.48, 88.02 4.49 M9.16 102.8 C23.84 82.07, 41.75 63.88, 93.18 5.22 M7.86 101.73 C26.39 78.69, 46.5 57.51, 93.17 4.34 M12.53 104.16 C34.1 77.52, 58.14 50.07, 100 4.52 M11.07 104.19 C31.76 82.98, 49.37 61.62, 99.7 3.46 M13.94 108.03 C30.91 85.68, 50.36 64.79, 102.91 7.66 M11.85 109.39 C39.03 76.66, 65.03 46.54, 102.08 5.96 M16.47 113.88 C49.83 76.01, 83.42 35.67, 104.35 9.25 M14.91 111.8 C36.68 88.73, 57.39 64.35, 106.07 8.45 M18.28 114.31 C52.96 79.75, 85.62 40.04, 109.31 9.99 M16.78 115.48 C38.74 90.26, 60.9 63.58, 108.63 10.2 M19.33 119.96 C54.83 76.54, 92.35 37.68, 113.96 10.91 M19.4 120.08 C49.03 83.98, 80.41 47.16, 111.36 12.51 M20.77 123.77 C51.63 88.52, 80.82 51.21, 117.17 14.6 M22.37 122.32 C49.41 93.56, 73.28 63.85, 114.9 15.07 M23.76 127.04 C52.59 91.2, 81.28 60.85, 118.46 18.47 M24.68 125.04 C47.88 98.73, 70.08 73.33, 119.79 16.37 M27.5 128.62 C53.92 99.44, 78.66 69.1, 122.2 19.27 M29.56 127.64 C54.15 97.87, 79.27 67.99, 123.52 19.28 M30.66 127.93 C65.6 92.22, 95.11 56.67, 124.33 22.05 M32.85 128.15 C58.02 98.5, 84.32 67.93, 126.12 21.21 M38.14 129.96 C73.78 87.64, 106.77 49.19, 129.72 26.69 M36.56 131.39 C67.63 96.38, 99.81 58.93, 128.42 25.74 M40.48 134.04 C72.81 91.93, 110.41 54.48, 128.31 27.89 M39.23 132.82 C62.83 108.27, 83.57 83.43, 129.05 29.69 M41.24 134.05 C75.86 98.02, 109.75 58.02, 133.17 32.9 M42.13 135.93 C62.06 111.29, 83.64 87.1, 131.37 32.04 M45.83 138.18 C63.88 118.4, 83.14 96.34, 133.28 37.32 M46.99 137.13 C76.13 102.01, 107.88 65.95, 133.12 36.82 M48.86 137.21 C80.32 108.16, 105.88 74.26, 135.55 38.3 M50.23 139.08 C80.57 104.72, 112.17 70.49, 135.36 39.45 M54.91 139.74 C86.35 105.25, 118.29 67.45, 136.99 43.07 M54.58 141.11 C76.88 113.78, 100.69 86.88, 139.43 44.37 M57.93 140.93 C79.97 114.55, 100.64 91, 139.41 45.94 M59.39 141.07 C85.94 109.77, 114.3 76.36, 140.62 47.18 M65.41 142.52 C93.89 107.89, 121.83 75.11, 144.14 49.25 M63.62 142.47 C89.86 111.81, 116.67 80.11, 141.7 50.75 M66.97 143.56 C97.3 109.57, 121.52 77.77, 142.87 57.48 M69.4 142.34 C90.33 116.38, 113.21 91.88, 142.66 56.39 M74.6 140.94 C96 117.1, 114.23 94.54, 143.61 61.86 M73.03 142.87 C94.15 117.52, 114.13 94.31, 143.53 61.62 M78.65 140.83 C102.42 114.87, 127.8 87.89, 146.22 66.23 M79.91 142.01 C102.34 116.59, 123.09 91.58, 144.83 67.17 M87.27 139.52 C104.77 118.72, 124.23 94.11, 145.11 71.48 M86.87 139.37 C106.38 116.57, 126.09 94.03, 145.05 72.52 M93.19 136.83 C102.16 124.94, 116.35 114.8, 142 79.34 M93.79 138.86 C104.25 124.01, 117.21 111.91, 144.4 80.81 M101.77 135.69 C111.93 123.95, 122.84 108.66, 139.36 90.88 M100.52 135.27 C112.49 121.55, 125.74 105.9, 139.05 92.48 M106.41 134.81 C114.83 125.91, 124.61 115.4, 133.03 104.67 M107.21 134.17 C113.43 127.03, 118.57 121.1, 134.65 102.56" stroke="#ffec99" stroke-width="0.5" fill="none"></path><path d="M65.28 0.74 C75.25 -1.16, 88.3 0.45, 98.21 3.82 C108.11 7.2, 117.6 13.39, 124.71 20.97 C131.81 28.54, 137.68 39.45, 140.85 49.26 C144.01 59.08, 145.32 69.75, 143.7 79.85 C142.08 89.95, 136.91 101.08, 131.13 109.86 C125.34 118.64, 117.86 127.3, 108.98 132.52 C100.09 137.73, 88.13 140.41, 77.82 141.17 C67.51 141.92, 56.89 140.48, 47.13 137.03 C37.36 133.57, 26.55 127.68, 19.22 120.43 C11.9 113.19, 6.23 103.53, 3.16 93.56 C0.08 83.58, -0.57 70.92, 0.77 60.58 C2.11 50.25, 5.35 39.98, 11.2 31.54 C17.04 23.1, 25.52 15.17, 35.84 9.94 C46.16 4.71, 65.91 1.44, 73.12 0.17 C80.34 -1.1, 79.3 1.29, 79.14 2.33 M70.21 -1.15 C80.05 -2.34, 93.12 3.14, 102.48 7.6 C111.85 12.07, 119.68 17.7, 126.41 25.65 C133.14 33.6, 140.18 45.3, 142.85 55.28 C145.52 65.26, 144.84 75.91, 142.43 85.53 C140.02 95.14, 134.97 104.61, 128.4 112.94 C121.83 121.28, 112.03 130.94, 103 135.56 C93.97 140.19, 84.53 140.88, 74.22 140.68 C63.91 140.47, 51.01 138.39, 41.16 134.33 C31.3 130.27, 21.69 124.1, 15.09 116.3 C8.5 108.5, 3.97 97.41, 1.59 87.53 C-0.79 77.66, -1.3 67.05, 0.8 57.06 C2.9 47.07, 7.69 35.77, 14.21 27.59 C20.74 19.4, 30.39 12.77, 39.96 7.95 C49.52 3.12, 66.24 -0.47, 71.63 -1.35 C77.01 -2.23, 72.38 1.34, 72.25 2.69" stroke="#1e1e1e" stroke-width="1" fill="none"></path></g><g transform="translate(276.5160681700416 55.79541853575512) rotate(0 30.509963989257812 25)"><text x="30.509963989257812" y="0" font-family="Virgil, Segoe UI Emoji" font-size="20px" fill="#1e1e1e" text-anchor="middle" style="white-space: pre;" direction="ltr" dominant-baseline="text-before-edge">User</text><text x="30.509963989257812" y="25" font-family="Virgil, Segoe UI Emoji" font-size="20px" fill="#1e1e1e" text-anchor="middle" style="white-space: pre;" direction="ltr" dominant-baseline="text-before-edge">Wallet</text></g><g mask="url(#mask-Iln4qMDB-a9O-QcVKANen)" stroke-linecap="round"><g transform="translate(310.57043753530667 156.91894243201136) rotate(0 -0.010691900860024361 57.6865110638931)"><path d="M-0.89 -0.61 C-0.71 18.38, 0.14 95.46, 0.13 114.71 M0.84 1.68 C1.03 20.77, 0.1 96.93, -0.34 115.98" stroke="#1e1e1e" stroke-width="1" fill="none"></path></g><g transform="translate(310.57043753530667 156.91894243201136) rotate(0 -0.010691900860024361 57.6865110638931)"><path d="M-11.15 89.16 C-8.62 93.76, -6.21 101.51, -0.79 115.82 M-10.51 87.27 C-6.38 94.41, -3.93 102.18, -0.58 115.06" stroke="#1e1e1e" stroke-width="1" fill="none"></path></g><g transform="translate(310.57043753530667 156.91894243201136) rotate(0 -0.010691900860024361 57.6865110638931)"><path d="M9.36 89.49 C7.34 93.87, 5.21 101.54, -0.79 115.82 M10.01 87.6 C8.65 94.69, 5.61 102.37, -0.58 115.06" stroke="#1e1e1e" stroke-width="1" fill="none"></path></g></g><mask id="mask-Iln4qMDB-a9O-QcVKANen"><rect x="0" y="0" fill="#fff" width="411.35692328363" height="372.1292084327996"></rect><rect x="276.17723280811765" y="202.02407543240548" fill="#000" width="67.99992370605469" height="25" opacity="1"></rect></mask><g transform="translate(276.1772328081176 202.02407543240548) rotate(0 34.38251282632899 12.581378063498995)"><text x="33.999961853027344" y="0" font-family="Virgil, Segoe UI Emoji" font-size="20px" fill="#1e1e1e" text-anchor="middle" style="white-space: pre;" direction="ltr" dominant-baseline="text-before-edge">Create</text></g><g mask="url(#mask-aozjBrN5QEzssvFzcE-Pt)" stroke-linecap="round"><g transform="translate(198.60438707139753 648.3872320960379) rotate(0 -57.08471405367537 -144.80912194434774)"><path d="M-1.07 -0.21 C-23.77 -25.23, -138.8 -102.21, -135.11 -150.41 C-131.43 -198.61, -4.89 -266.35, 21.03 -289.41 M0.58 -1.36 C-21.83 -26.68, -136.02 -104.22, -132.75 -152.07 C-129.48 -199.93, -5.29 -265.88, 20.21 -288.49" stroke="#1e1e1e" stroke-width="1" fill="none"></path></g><g transform="translate(198.60438707139753 648.3872320960379) rotate(0 -57.08471405367537 -144.80912194434774)"><path d="M2.59 -265.08 C11.2 -273.57, 15.24 -284.2, 19.99 -287.59 M2.46 -263.98 C8.58 -274.13, 15.41 -282.12, 20.98 -287.63" stroke="#1e1e1e" stroke-width="1" fill="none"></path></g><g transform="translate(198.60438707139753 648.3872320960379) rotate(0 -57.08471405367537 -144.80912194434774)"><path d="M-9.13 -281.92 C4.02 -283.72, 12.64 -287.77, 19.99 -287.59 M-9.27 -280.82 C1.33 -284.61, 12.59 -286.23, 20.98 -287.63" stroke="#1e1e1e" stroke-width="1" fill="none"></path></g></g><mask id="mask-aozjBrN5QEzssvFzcE-Pt"><rect x="0" y="0" fill="#fff" width="454.17824307626915" height="1037.038506223481"></rect><rect x="10" y="484.61111111111074" fill="#000" width="108.31988525390625" height="25" opacity="1"></rect></mask><g transform="translate(10 484.6111111111108) rotate(0 131.51967301772214 18.966999040579367)"><text x="54.159942626953125" y="0" font-family="Virgil, Segoe UI Emoji" font-size="20px" fill="#1e1e1e" text-anchor="middle" style="white-space: pre;" direction="ltr" dominant-baseline="text-before-edge">Send Signal</text></g><g stroke-linecap="round" transform="translate(528.6043870713975 251.82644628099158) rotate(0 120 93.5)"><path d="M16.27 81.72 C16.27 81.72, 16.27 81.72, 16.27 81.72 M16.27 81.72 C16.27 81.72, 16.27 81.72, 16.27 81.72 M10.76 94.16 C17.97 83.11, 29.5 72.78, 32.41 69.25 M10.76 94.16 C18.21 85.88, 26.14 77.16, 32.41 69.25 M11.16 99.8 C25.44 83.66, 36.96 67.77, 47.9 57.54 M11.16 99.8 C21.66 89.2, 31.71 76.37, 47.9 57.54 M13.52 103.18 C31.65 83.56, 50.45 61.44, 64.04 45.07 M13.52 103.18 C32.92 80.03, 52.91 58.19, 64.04 45.07 M16.54 105.8 C29.59 87.64, 46.18 71.95, 79.52 33.35 M16.54 105.8 C41.04 77.76, 64.93 49.34, 79.52 33.35 M19.56 108.43 C47.41 74.88, 75.47 46.6, 95.66 20.88 M19.56 108.43 C40.34 83.9, 60.97 60.1, 95.66 20.88 M22.58 111.05 C48.47 80.13, 71.89 53.76, 111.15 9.17 M22.58 111.05 C47.43 82.17, 73.5 51.64, 111.15 9.17 M25.6 113.68 C55.58 80.11, 84.13 48.05, 114.82 11.04 M25.6 113.68 C59.77 75.47, 93.05 35.67, 114.82 11.04 M28.62 116.3 C52.75 89.43, 75.38 62.79, 123.09 7.62 M28.62 116.3 C53.17 86.53, 77.54 59.39, 123.09 7.62 M31.64 118.93 C66.09 77.65, 101.1 40.87, 128.08 7.98 M31.64 118.93 C70.66 76, 108.93 32.13, 128.08 7.98 M35.31 120.8 C58.28 96.13, 80.86 70.11, 131.09 10.61 M35.31 120.8 C68.76 84.44, 100.11 47.63, 131.09 10.61 M38.33 123.42 C66.03 90.77, 95.16 57.8, 134.77 12.48 M38.33 123.42 C73.97 80.99, 111.41 38.36, 134.77 12.48 M41.35 126.04 C75.17 87, 109.16 47.49, 137.79 15.1 M41.35 126.04 C69.43 95.28, 98.28 62.48, 137.79 15.1 M44.37 128.67 C75.72 90.81, 109.05 53.4, 141.46 16.97 M44.37 128.67 C75.62 92.26, 108.17 55.55, 141.46 16.97 M48.04 130.54 C69.48 103.91, 92.99 80.45, 144.48 19.6 M48.04 130.54 C71.14 104.83, 93.45 80.13, 144.48 19.6 M51.06 133.16 C78.81 102.37, 102.93 72.3, 148.16 21.46 M51.06 133.16 C88.09 90.6, 126.01 47.72, 148.16 21.46 M54.08 135.79 C77.34 109.11, 100.4 82.66, 151.18 24.09 M54.08 135.79 C75.93 109.69, 96.23 85.22, 151.18 24.09 M57.75 137.66 C94.11 95.15, 134.67 49.47, 154.85 25.96 M57.75 137.66 C80.36 113.13, 100.67 89.37, 154.85 25.96 M60.77 140.28 C91.46 103.39, 124.63 68.17, 157.87 28.58 M60.77 140.28 C86.91 110.26, 112.22 81.14, 157.87 28.58 M63.79 142.9 C101.7 102.45, 136.71 59.62, 160.89 31.21 M63.79 142.9 C87.41 114.14, 113.86 85.35, 160.89 31.21 M66.81 145.53 C86.09 122.72, 105.19 101.06, 163.91 33.83 M66.81 145.53 C97.12 111.87, 125.92 80.02, 163.91 33.83 M70.49 147.4 C97.07 119.35, 119.35 91.62, 166.93 36.46 M70.49 147.4 C96.84 117.26, 124 85.36, 166.93 36.46 M73.5 150.02 C104.92 113.74, 136.07 76, 169.94 39.08 M73.5 150.02 C96.29 125.48, 116.73 100.26, 169.94 39.08 M76.52 152.65 C98.7 127.33, 119.67 102.54, 173.62 40.95 M76.52 152.65 C112.82 111.74, 150.19 69.52, 173.62 40.95 M79.54 155.27 C108.76 120.86, 139.33 86.68, 176.64 43.57 M79.54 155.27 C108.22 125.96, 134.13 95.06, 176.64 43.57 M83.22 157.14 C104.13 132.83, 125.03 110.94, 179.66 46.2 M83.22 157.14 C105.15 132.39, 125.61 107.87, 179.66 46.2 M86.24 159.76 C117.5 122.66, 148.61 88.58, 182.68 48.82 M86.24 159.76 C109.13 133.32, 130.66 108.95, 182.68 48.82 M89.25 162.39 C117.73 128.31, 149.83 94.78, 185.7 51.45 M89.25 162.39 C108.41 138.55, 129.63 114.55, 185.7 51.45 M92.93 164.26 C118.25 133.11, 146.44 102.24, 188.71 54.07 M92.93 164.26 C114.31 140.31, 132.23 119.74, 188.71 54.07 M95.95 166.88 C132.59 124.51, 173.05 78.03, 192.39 55.94 M95.95 166.88 C122.65 134.17, 152.1 102.08, 192.39 55.94 M98.97 169.51 C128.14 136.74, 156.35 105.55, 195.41 58.56 M98.97 169.51 C124.84 140.18, 150.91 110.17, 195.41 58.56 M101.99 172.13 C129.72 143.46, 153.52 112.6, 198.43 61.19 M101.99 172.13 C134.19 134.39, 167.92 96.13, 198.43 61.19 M105.66 174 C140.42 133.26, 176.64 93.72, 201.45 63.81 M105.66 174 C126.71 149.28, 148.26 125.42, 201.45 63.81 M108.68 176.62 C139.89 144.13, 169.33 109.9, 204.46 66.44 M108.68 176.62 C128.41 153.64, 149.54 130.05, 204.46 66.44 M111.7 179.25 C141.41 142.58, 172.65 107.48, 207.48 69.06 M111.7 179.25 C135.3 153.72, 157.26 127.17, 207.48 69.06 M116.03 180.36 C136.19 155.78, 155.14 134.59, 210.5 71.69 M116.03 180.36 C139.75 153.28, 162.94 125.72, 210.5 71.69 M119.7 182.23 C147.62 149.52, 176.91 114.57, 214.18 73.55 M119.7 182.23 C157.13 140.54, 193.52 97.62, 214.18 73.55 M124.04 183.35 C150.94 153.68, 178.04 124.12, 217.2 76.18 M124.04 183.35 C160.58 139.88, 195.88 99.02, 217.2 76.18 M131.65 180.69 C149.11 157.83, 168.35 136.22, 220.21 78.8 M131.65 180.69 C162.54 146.37, 192.49 111.09, 220.21 78.8 M147.13 168.97 C171.63 139.44, 200.42 109.42, 223.23 81.43 M147.13 168.97 C168.05 142.85, 190.98 118.85, 223.23 81.43 M163.93 155.75 C183.08 132.79, 204.16 108.04, 226.25 84.05 M163.93 155.75 C180.05 138.61, 196.02 118.91, 226.25 84.05 M180.72 142.52 C200.86 119.32, 219.92 98.85, 229.27 86.68 M180.72 142.52 C198.02 123.02, 215.8 102.35, 229.27 86.68 M197.52 129.3 C206.84 118.17, 216.2 111.77, 231.63 90.06 M197.52 129.3 C208.06 118.57, 217.23 107.01, 231.63 90.06 M219.56 110.04 C226.15 103.34, 232.26 99.2, 233.34 94.19 M219.56 110.04 C224.32 104.27, 230.06 99.67, 233.34 94.19" stroke="#b2f2bb" stroke-width="0.5" fill="none"></path><path d="M151.25 23.5 M151.25 23.5 C171.63 38.65, 195.37 58.09, 209.75 70.5 M151.25 23.5 C166.66 35.76, 182.08 48.08, 209.75 70.5 M209.75 70.5 C238.32 94.28, 238.02 92.8, 209.75 117.5 M209.75 70.5 C238.71 94.59, 240.81 95.27, 209.75 117.5 M209.75 117.5 C191.21 129.62, 177.74 141.86, 151.25 163.5 M209.75 117.5 C185.42 134.89, 162.85 153.37, 151.25 163.5 M151.25 163.5 C120.38 188.09, 121.56 185.92, 90.75 163.5 M151.25 163.5 C118.79 184.78, 122.06 185.24, 90.75 163.5 M90.75 163.5 C66.24 146.19, 41.93 126.28, 30.25 117.5 M90.75 163.5 C70.45 147.3, 48.57 132.5, 30.25 117.5 M30.25 117.5 C-1.46 94.51, -0.22 95.33, 30.25 70.5 M30.25 117.5 C-0.05 95.55, 1.06 95.1, 30.25 70.5 M30.25 70.5 C47.12 59.13, 63.49 46.13, 90.75 23.5 M30.25 70.5 C46.91 57.65, 64.97 45.67, 90.75 23.5 M90.75 23.5 C122.16 -1.9, 121.52 0.5, 151.25 23.5 M90.75 23.5 C118.74 -1.76, 121.25 1.29, 151.25 23.5" stroke="#1e1e1e" stroke-width="1" fill="none"></path></g><g transform="translate(594.4644487169053 320.5764462809916) rotate(0 54.13993835449219 25)"><text x="54.13993835449219" y="0" font-family="Virgil, Segoe UI Emoji" font-size="20px" fill="#1e1e1e" text-anchor="middle" style="white-space: pre;" direction="ltr" dominant-baseline="text-before-edge">Customized</text><text x="54.13993835449219" y="25" font-family="Virgil, Segoe UI Emoji" font-size="20px" fill="#1e1e1e" text-anchor="middle" style="white-space: pre;" direction="ltr" dominant-baseline="text-before-edge">Action</text></g><g stroke-linecap="round"><g transform="translate(383.048831515842 348.2222222222222) rotate(0 74.5452718266373 -0.8447947788569508)"><path d="M0.46 0.54 C25.37 0.25, 125.23 -1.82, 149.85 -2.23 M-0.76 -0.23 C24.04 -0.37, 124.77 -1.15, 149.41 -1.27" stroke="#1e1e1e" stroke-width="1" fill="none"></path></g></g><mask></mask></svg>